<?xml version="1.0" encoding="utf-8"?>
<!-- Generator: Adobe Illustrator 26.3.1, SVG Export Plug-In . SVG Version: 6.00 Build 0)  -->
<svg version="1.1" id="Capa_1" xmlns="http://www.w3.org/2000/svg" xmlns:xlink="http://www.w3.org/1999/xlink" x="0px" y="0px"
	 viewBox="0 0 1920 1080" style="enable-background:new 0 0 1920 1080;" xml:space="preserve">
<style type="text/css">
	.st0{opacity:0.95;}
	.st1{fill:#FFFFFF;}
	.st2{fill:#C8102E;}
</style>
<g>
	<g>
		<g>
			<g class="st0">
				<g>
					<polygon class="st1" points="925.72,515.28 961.4,515.28 961.4,604.72 976.25,604.72 976.25,515.28 1011.93,515.28 
						1011.93,504.23 925.72,504.23 					"/>
					<path class="st1" d="M600.7,566.47c0,19.69-12.84,30.54-36.15,30.54c-20.18,0-31.75-11.24-31.75-30.84v-61.93h-14.85v60.87
						c0,8.84,1.26,20.23,11.11,29.91c5.93,5.67,16.88,12.44,35.34,12.44c15.42,0,27.62-4.18,36.27-12.45
						c9.83-9.67,11.09-21.06,11.09-29.9v-60.87H600.7V566.47z"/>
					<polygon class="st1" points="764.5,504.23 749.65,504.23 749.65,604.72 830.25,604.72 830.25,593.66 764.5,593.66 					"/>
					<path class="st1" d="M1222.21,553.11L1222.21,553.11c5.53-5.24,8.83-12.5,8.83-19.44c0-7.04-2.79-14.3-7.29-18.97
						c-9.13-8.96-16.79-10.47-35.21-10.47h-52.82v100.49h14.85v-42.97h40.27l25.66,42.97h17.05l-27.06-43.86
						C1212.73,559.61,1218.02,557.01,1222.21,553.11z M1216.19,533.67c0,11.04-7.78,17.63-20.82,17.63h-44.81v-36.02h42.68
						C1208.9,515.28,1216.19,521.13,1216.19,533.67z"/>
					<path class="st1" d="M1417.02,504.82l-0.29-0.59h-14.97l-49.31,100.49h13.29l12.75-27.94h56.68l13.52,27.94h16.75
						L1417.02,504.82z M1430.35,566.94h-47.26l23.13-50.1L1430.35,566.94z"/>
				</g>
				<g>
					<g>
						<path class="st1" d="M799.35,236.06c-1.71,11.64,6.05,21.6,16.79,21.6c10.75,0,21.42-9.96,23.13-21.6
							c1.7-11.64-6.05-21.6-16.79-21.6C811.73,214.46,801.06,224.42,799.35,236.06z"/>
						<path class="st1" d="M1660.19,285.68c-26.57,0-54.27,32.43-69.81,49.13c35.31-58.08,71.88-112.39,109.18-168.92h-37.46
							c-22.53,33.66-47.08,71.01-70.71,108.79c-20.68,28.55-48.59,58.7-80.09,70.86c1.7-7.66,2.26-15.57,1.97-23.48
							c-0.37-10.13-3.68-23.45-12.26-29.79l0,0c-5.65-4.43-13.98-7.33-24.74-7.33c-33.5,0-68.63,21.04-91.3,51.72l0.13-0.32
							c-0.42,0.61-0.83,1.25-1.25,1.87c-2.02,2.82-3.93,5.71-5.73,8.68c-26.36,40.96-51.43,92.87-77.85,92.87
							c-5.88,0-9.88-3.15-10.18-11.43c-1.76-48.46,109.1-215.06,140.63-262.33h-38.06c-28.23,43.24-63.82,98.71-93.33,150.68
							c-19.61,34.53-71.34,125.11-115.84,125.11c-13.79,0-21.28-7.8-21.77-21.42c-0.74-20.47,9.6-41.01,20.7-57.21
							c3.92,1.11,7.96,1.62,11.99,1.62c29.67,0,78.62-25.04,77.38-59.1c-0.57-15.7-15.2-20.59-29.73-20.59
							c-35.7,0-73.85,34.54-92.39,62.24c-15.85,23.67-47.06,93.7-78.36,93.7c-7.24,0-11.65-3.4-11.92-10.91
							c-1.18-32.43,53.55-71.98,52.01-114.36c-0.62-17.12-12.93-30.05-32.95-30.05c-28.62,0-56.62,31.63-74.22,51.01
							c4.96-10.07,10.05-20.07,15.22-30.02c29.24-23.48,121.23-91.21,119.83-129.8c-0.42-11.56-8.12-18.93-20.72-18.93
							c-49.66,0-99.12,82.49-120.44,121.05c-8.18,14.79-15.15,30.49-23.56,45.08c-19.12,33.18-76.03,116.96-117.48,116.96
							c-14.78,0-18.35-7.8-18.84-21.17c-1.18-32.48,49.18-125.56,84.8-125.56c5.63,0,10.39,2.23,10.62,8.61
							c0.6,16.64-27.66,20.79-27.02,38.38c0.26,7.11,5.84,11.36,12.62,11.36c19.45,0,26.85-25.08,26.27-41.07
							c-0.65-17.81-12.07-25.68-28.95-25.68c-45.12,0-83.23,42.6-102.05,79.13c-9.7,18.83-42.5,75.9-66.68,75.9
							c-5.54,0-9.13-3.28-9.33-8.89c-1.17-32.23,47.47-114.59,65.28-144l-35.49,0c-25.93,34.71-57.46,92.57-57.46,125.97
							c0,22.79,12.36,36.36,34.5,36.36c25.05,0,47.58-30.39,59.72-49.23c-0.91,31.61,18.54,49.49,49.85,49.49
							c38.99,0,74.13-42.28,94.88-70.81c-4.66,10.28-20.68,46.27-28.93,68.13l34.12-1.22c11.83-31.41,27.32-62.12,46.72-89.43
							c13.32-18.76,51.84-61.74,76.18-61.74c4.41,0,8.44,2.49,8.61,7.32c0.85,23.31-57.52,69.34-55.89,114.15
							c0.68,18.83,17.17,33.71,35.83,33.71c31.13,0,52.42-31.17,66.68-54.71c-0.42,3.49-0.67,7.03-0.54,10.56
							c1.01,27.89,21.94,43.97,48.73,43.97c35.4,0,66.76-36.22,85.45-62.03c-1.67,7.81-3.59,16.85-3.29,24.9
							c0.79,21.74,12.75,35.95,35.14,35.95c28.25,0,50.1-35.81,63.4-57.05c-0.56,6.21-0.55,12.54,0.38,17.89
							c4.19,24.07,20.89,40.29,46.25,40.29c44.57,0,86.13-56.52,99.58-94.33c20.51-6.09,38.23-18.86,53.57-33.21l2.12-3.32
							c-2.37,3.99-4.78,7.98-7.1,11.95c-12.38,21.12-31.17,55.05-30.23,80.73c0.93,25.37,22.73,37.61,45.97,37.61
							c46.42,0,86.65-35.87,106.65-74.54c7.63-14.75,13.84-35.43,13.22-52.35C1691.67,302.69,1681.81,285.68,1660.19,285.68z
							 M1250.74,293.4c3.29,0,6.12,1.67,6.25,5.29c0.85,23.44-41.27,58.72-63.73,58.72c-2.3,0-4.57-0.06-6.82-0.7
							C1195.59,342.17,1233.53,293.4,1250.74,293.4z M1118.94,168.12c6.57,0,10.34,3.34,10.55,9.17
							c1.06,29.13-74.79,88.25-98.13,106.94C1044.55,259.91,1094.39,168.12,1118.94,168.12z M1404.21,441.77
							c-9.81,0-15.38-8.47-15.7-17.46c-0.62-17.24,12.45-42.32,21.54-57.51c15.52-25.94,32.8-53.19,58.2-66.8
							c-7.55,8.24-11.76,20.22-11.76,31.93c0,14.86,8.84,28.95,28.16,27.9C1471.53,387.12,1438.63,441.77,1404.21,441.77z
							 M1489.1,350.04c-16.58,2.1-22.59-6.35-22.59-18.21c0-14.59,10.45-34.28,22.99-34.28c5.42,0,8.84,4.76,9.12,12.32
							C1499.1,323.16,1494.13,338.08,1489.1,350.04z M1643.93,367.3c-12.31,21.26-45.03,74.44-73.8,74.44
							c-10.42,0-16.44-6.09-16.82-16.38c-0.84-22.94,19.08-51.97,31.87-69.52c12.44-17.07,51.99-60.31,73.12-60.31
							c6.26,0,10.2,2.47,10.45,9.23C1669.33,320.35,1651.96,353.42,1643.93,367.3z"/>
						<path class="st1" d="M651.44,444.13c0-3.72,0.48-7.99,1.05-10.94c15.2-78.75,103.1-258.18,177.13-284.38
							c9.98-3.53,21.83-4.57,31.23-3.48c0.88-4.1-3.42-7.08-9.65-7.23c-134.73,0.15-229.94,146.32-310.09,235.9
							c14.01-24.02,24.32-50.07,35.16-75.7c12.83-30.34,50.31-138.12,88.41-138.12c2.81,0,6.01,0.32,9.48,1.57
							c0.77-2.32,0.18-5.92-5.69-8.17c-48.33-18.51-111.63-35.74-170.16-35.74c-44.54,0-108.44,14-108.44,66.19
							c0,21.8,14.64,34.92,30.1,34.92c3.26,0,5.34-0.78,6.14-1.67c-11.4-6.32-16.19-16.63-16.19-28.51
							c0-46.53,61.44-58.3,100.87-58.3c46.06,0,94.16,10.1,138.23,23.82c-10.25,1.05-20.24,2.77-30.05,5.68
							c-66.57,19.78-126.18,89.02-165.47,143.38c-43.8,60.6-96.73,153.9-182.96,153.9c-31.27,0-57.57-14.1-59-48.65
							c-2.28-55.08,51.22-109.45,106.75-109.45c25.36,0,39.91,13.34,40.36,35.78c0.61,30.14-23.65,52.52-46.18,59.88
							c1.68,3.88,9.68,4.9,17.7,1.2c22.9-10.57,39.81-36.07,38.7-62.82c-1.27-30.61-24.53-46.02-59.6-46.02
							c-60.84,0-121.71,41.72-118.97,107.75c1.94,46.94,35.36,72.39,81.62,72.39c183.1,0,236.16-274.73,362.58-303.3
							c-85.58,42.91-99.01,155.79-135.66,234.96c-4.89,10.57-10.62,20.66-18.51,29.23c3.76,2.26,7.67,2.88,11.9,2.88
							c13.26,0,22.6-5.45,31.59-14.35c17.06-16.87,31.27-36.9,46.74-55.22c47.83-56.62,138.3-168.75,203.88-196.09
							c-65.54,40.16-162.35,207.58-159.49,276.69c0.65,15.63,9.93,23.84,25.45,23.84c6.78,0,14.12-1.27,19.6-3.71
							C653.56,458.61,651.44,450.56,651.44,444.13z"/>
					</g>
					<g>
						<path class="st1" d="M1700.7,433.56h-7.24v17.66h-3.85v-17.66h-7.13v-2.67h18.22V433.56z M1707.94,451.22h-3.85v-20.33h5.94
							l7.01,15.4l6.79-15.4h5.94v20.33h-3.85v-16.97h-0.11l-7.64,16.97h-2.49l-7.64-16.97h-0.11V451.22z"/>
					</g>
				</g>
				<polygon class="st2" points="967.87,658.38 912.01,658.38 912.01,962.16 967.87,921.18 1023.72,962.16 1023.72,658.38 				"/>
			</g>
		</g>
	</g>
</g>
</svg>
